<svg width="37" height="37" viewBox="0 0 37 37" fill="none" xmlns="http://www.w3.org/2000/svg">
<g clip-path="url(#clip0_2123_167)">
<path d="M30.1034 5.08749H22.7034C22.4076 4.20831 21.8433 3.44417 21.09 2.90284C20.3367 2.36151 19.4325 2.07031 18.5049 2.07031C17.5773 2.07031 16.6731 2.36151 15.9198 2.90284C15.1666 3.44417 14.6022 4.20831 14.3064 5.08749H7.19423C6.94253 5.05109 6.68597 5.06848 6.44148 5.13851C6.197 5.20854 5.97014 5.32962 5.77589 5.49377C5.58164 5.65791 5.4244 5.86138 5.31456 6.09076C5.20472 6.32013 5.14477 6.57019 5.13867 6.82444V33.1561C5.14002 33.3856 5.18654 33.6125 5.2756 33.824C5.36465 34.0354 5.49448 34.2273 5.65768 34.3886C5.82088 34.5499 6.01425 34.6774 6.22675 34.764C6.43925 34.8505 6.66672 34.8944 6.89617 34.8931H30.1034C30.3328 34.8944 30.5603 34.8505 30.7728 34.764C30.9853 34.6774 31.1787 34.5499 31.3419 34.3886C31.5051 34.2273 31.6349 34.0354 31.724 33.824C31.813 33.6125 31.8595 33.3856 31.8609 33.1561V6.82444C31.8595 6.59499 31.813 6.36805 31.724 6.15658C31.6349 5.94512 31.5051 5.75326 31.3419 5.59197C31.1787 5.43068 30.9853 5.30311 30.7728 5.21655C30.5603 5.12999 30.3328 5.08614 30.1034 5.08749ZM11.6034 8.17083C11.6034 7.89824 11.7117 7.63683 11.9044 7.44408C12.0972 7.25133 12.3586 7.14305 12.6312 7.14305H16.1667V6.49555C16.1667 5.86452 16.4174 5.25933 16.8636 4.81313C17.3098 4.36692 17.915 4.11624 18.546 4.11624C19.1771 4.11624 19.7822 4.36692 20.2285 4.81313C20.6747 5.25933 20.9253 5.86452 20.9253 6.49555V7.19444H24.4609C24.7335 7.19444 24.9949 7.30272 25.1876 7.49547C25.3804 7.68821 25.4887 7.94963 25.4887 8.22222V10.0722H11.5623L11.6034 8.17083ZM26.5267 17.6572L17.1534 27.0305L11.7678 21.645C11.4953 21.3724 11.3421 21.0027 11.3421 20.6172C11.3421 20.2317 11.4953 19.862 11.7678 19.5894C12.0404 19.3169 12.4101 19.1637 12.7956 19.1637C13.1811 19.1637 13.5508 19.3169 13.8234 19.5894L17.1739 22.94L24.5123 15.6017C24.7849 15.3291 25.1546 15.1759 25.5401 15.1759C25.9256 15.1759 26.2953 15.3291 26.5678 15.6017C26.8404 15.8742 26.9936 16.2439 26.9936 16.6294C26.9936 17.0149 26.8404 17.3846 26.5678 17.6572H26.5267Z" fill="#0ACBF5"/>
</g>
<defs>
<clipPath id="clip0_2123_167">
<rect width="37" height="37" fill="white"/>
</clipPath>
</defs>
</svg>
