<svg width="33" height="33" viewBox="0 0 33 33" fill="none" xmlns="http://www.w3.org/2000/svg">
<path opacity="0.5" d="M30.25 18.9062V15.8784C30.25 12.2589 30.25 10.4491 29.1919 9.27277C29.0947 9.16457 28.9917 9.06158 28.8835 8.96426C27.7071 7.90625 25.8974 7.90625 22.2779 7.90625H21.764C20.1777 7.90625 19.3846 7.90625 18.6455 7.69557C18.2395 7.57982 17.8481 7.41773 17.4791 7.21247C16.8076 6.8388 16.2467 6.27795 15.125 5.15625L14.3683 4.39966C13.9924 4.0237 13.8045 3.83571 13.6069 3.67195C12.7552 2.96593 11.7104 2.53315 10.6089 2.43015C10.3534 2.40625 10.0876 2.40625 9.55591 2.40625C8.34243 2.40625 7.73568 2.40625 7.23029 2.50161C5.00543 2.92138 3.26513 4.66168 2.84536 6.88654C2.75 7.39193 2.75 7.99868 2.75 9.21216V18.9062C2.75 24.0917 2.75 26.6845 4.36091 28.2953C5.97183 29.9062 8.56455 29.9062 13.75 29.9062H19.25C24.4354 29.9062 27.0282 29.9062 28.639 28.2953C30.25 26.6845 30.25 24.0917 30.25 18.9062Z" fill="#BFBFBF" fill-opacity="0.93"/>
<path d="M16.5 15.125C17.0695 15.125 17.5312 15.5867 17.5312 16.1562V17.875H19.25C19.8195 17.875 20.2812 18.3367 20.2812 18.9062C20.2812 19.4758 19.8195 19.9375 19.25 19.9375H17.5312V21.6562C17.5312 22.2258 17.0695 22.6875 16.5 22.6875C15.9305 22.6875 15.4688 22.2258 15.4688 21.6562V19.9375H13.75C13.1805 19.9375 12.7188 19.4758 12.7188 18.9062C12.7188 18.3367 13.1805 17.875 13.75 17.875H15.4688V16.1562C15.4688 15.5867 15.9305 15.125 16.5 15.125Z" fill="#BFBFBF" fill-opacity="0.93"/>
</svg>
