<svg width="25" height="25" viewBox="0 0 25 25" fill="none" xmlns="http://www.w3.org/2000/svg">
<path fill-rule="evenodd" clip-rule="evenodd" d="M8.33333 2.08325H22.9167C24.0673 2.08325 25 3.016 25 4.16659C25 5.31717 24.0673 6.24992 22.9167 6.24992H8.33333C7.18275 6.24992 6.25 5.31717 6.25 4.16659C6.25 3.016 7.18275 2.08325 8.33333 2.08325ZM2.08333 2.08325C3.23392 2.08325 4.16667 3.016 4.16667 4.16659C4.16667 5.31717 3.23392 6.24992 2.08333 6.24992C0.93275 6.24992 0 5.31717 0 4.16659C0 3.016 0.93275 2.08325 2.08333 2.08325ZM8.33333 10.4166H22.9167C24.0673 10.4166 25 11.3493 25 12.4999C25 13.6505 24.0673 14.5833 22.9167 14.5833H8.33333C7.18275 14.5833 6.25 13.6505 6.25 12.4999C6.25 11.3493 7.18275 10.4166 8.33333 10.4166ZM2.08333 10.4166C3.23392 10.4166 4.16667 11.3493 4.16667 12.4999C4.16667 13.6505 3.23392 14.5833 2.08333 14.5833C0.93275 14.5833 0 13.6505 0 12.4999C0 11.3493 0.93275 10.4166 2.08333 10.4166ZM8.33333 18.7499H22.9167C24.0673 18.7499 25 19.6826 25 20.8333C25 21.9839 24.0673 22.9166 22.9167 22.9166H8.33333C7.18275 22.9166 6.25 21.9839 6.25 20.8333C6.25 19.6826 7.18275 18.7499 8.33333 18.7499ZM2.08333 18.7499C3.23392 18.7499 4.16667 19.6826 4.16667 20.8333C4.16667 21.9839 3.23392 22.9166 2.08333 22.9166C0.93275 22.9166 0 21.9839 0 20.8333C0 19.6826 0.93275 18.7499 2.08333 18.7499Z" fill="#BFBFBF" fill-opacity="0.93"/>
</svg>
