<svg width="31" height="31" viewBox="0 0 31 31" fill="none" xmlns="http://www.w3.org/2000/svg">
<path d="M25.8333 3.87508C26.1759 3.87508 26.5044 3.739 26.7467 3.49676C26.9889 3.25453 27.125 2.92599 27.125 2.58341C27.125 2.24084 26.9889 1.9123 26.7467 1.67007C26.5044 1.42783 26.1759 1.29175 25.8333 1.29175H5.16667C4.8241 1.29175 4.49555 1.42783 4.25332 1.67007C4.01109 1.9123 3.875 2.24084 3.875 2.58341C3.875 2.92599 4.01109 3.25453 4.25332 3.49676C4.49555 3.739 4.8241 3.87508 5.16667 3.87508H6.52162C6.71021 6.24658 7.48133 11.3022 10.6472 14.2084C7.30825 17.4518 6.62883 24.1982 6.49321 27.1251H5.16667C4.8241 27.1251 4.49555 27.2612 4.25332 27.5034C4.01109 27.7456 3.875 28.0742 3.875 28.4167C3.875 28.7593 4.01109 29.0879 4.25332 29.3301C4.49555 29.5723 4.8241 29.7084 5.16667 29.7084H25.8333C26.1759 29.7084 26.5044 29.5723 26.7467 29.3301C26.9889 29.0879 27.125 28.7593 27.125 28.4167C27.125 28.0742 26.9889 27.7456 26.7467 27.5034C26.5044 27.2612 26.1759 27.1251 25.8333 27.1251H24.5068C24.3712 24.2007 23.6917 17.4544 20.3528 14.2084C23.5187 11.2996 24.2898 6.244 24.4784 3.87508H25.8333ZM17.5408 13.0795C17.3356 13.1935 17.1654 13.3612 17.0483 13.5646C16.9313 13.7681 16.8719 13.9996 16.8765 14.2343C16.8812 14.469 16.9497 14.6979 17.0747 14.8966C17.1997 15.0953 17.3765 15.2561 17.586 15.3619C20.7338 16.948 21.7194 23.5136 21.9196 27.1251H9.08042C9.27546 23.5084 10.2662 16.948 13.414 15.3619C13.6235 15.2561 13.8003 15.0953 13.9253 14.8966C14.0503 14.6979 14.1188 14.469 14.1235 14.2343C14.1281 13.9996 14.0687 13.7681 13.9517 13.5646C13.8346 13.3612 13.6644 13.1935 13.4592 13.0795C10.1796 11.2595 9.33487 6.25691 9.11658 3.87508H21.8834C21.6651 6.25691 20.8204 11.2595 17.5408 13.0795ZM15.5 16.7917C15.5 16.7917 19.375 19.8917 19.375 21.4417V25.8334H11.625V21.4417C11.625 19.8917 15.5 16.7917 15.5 16.7917Z" fill="#0ACBF5"/>
</svg>
